<svg xmlns="http://www.w3.org/2000/svg" viewBox="0 0 70.81 70.81"><defs><style>.cls-1{fill:#25c16f;}.cls-2{fill:#20a849;}.cls-3{fill:#fff;}</style></defs><g id="Layer_2" data-name="Layer 2"><g id="Layer_1-2" data-name="Layer 1"><line class="cls-1" x1="70.81" y1="8.85" x2="70.81" y2="35.4"/><path class="cls-2" d="M35.4,0H62a8.85,8.85,0,0,1,8.85,8.85V35.4a35.4,35.4,0,0,1-35.4,35.4h0A35.4,35.4,0,0,1,0,35.4v0A35.4,35.4,0,0,1,35.4,0Z"/><path class="cls-3" d="M35.4,15.74A16.2,16.2,0,0,0,19.13,32V42.86a5.43,5.43,0,0,0,5.42,5.43h4.52V35.63H22.74V32a12.66,12.66,0,0,1,25.32,0v3.62H41.73V48.29H46v.27a4.88,4.88,0,0,1-4.88,4.89H36.22a.82.82,0,0,0-.82.81h0a.82.82,0,0,0,.82.81H41.1a6.5,6.5,0,0,0,6.51-6.51v-.44a5.43,5.43,0,0,0,4.07-5.26V32A16.24,16.24,0,0,0,35.4,15.74Z"/></g></g></svg>